<svg id="Bitmex_Logo" data-name="Bitmex Logo" xmlns="http://www.w3.org/2000/svg" width="903.818" height="147.103" viewBox="0 0 903.818 147.103">
  <path id="Path_572" data-name="Path 572" d="M77,3.85h84.619a5.586,5.586,0,0,1-1.11,3.094c-2.865,4.913-5.443,10.026-8.257,14.939-3.982,7.054-7.706,14.237-11.752,21.262-2.564,5.056-5.457,9.954-8.193,14.924H82.979c-.859,0-1.712.043-2.571.093a45.351,45.351,0,0,1-2.865,5.321c-1.253,2.034-2.27,4.2-3.509,6.238-1.311,2.736-3.122,5.185-4.44,7.913-2.721,4.619-5.264,9.31-7.928,13.979q-4.168,7.161-8.15,14.523a61.588,61.588,0,0,0-3.1,5.378c-5.564,9.682-10.95,19.45-16.521,29.125a11.687,11.687,0,0,1-1.848,2.865c-9.525-.064-19.049,0-28.574,0A14.617,14.617,0,0,0,0,143.991c0-2.635,1.762-4.748,2.95-6.961,1.432-2.972,3.344-5.729,4.784-8.708C19.149,107.9,30.443,87.4,41.822,66.963c2.578-4.44,4.791-8.973,7.383-13.327,3.237-5.729,6.252-11.587,9.625-17.252,1.074-2.37,2.521-4.54,3.7-6.853,4.2-7.469,8.314-14.982,12.5-22.451A13.055,13.055,0,0,1,77,3.85Z" transform="translate(0 -1.093)" fill="#eb4a60"/>
  <g id="Group_3628" data-name="Group 3628" transform="translate(62.332)">
    <path id="Path_573" data-name="Path 573" d="M199.76,34.105C205.4,24.258,210.838,14.3,216.553,4.5h30.565a6.316,6.316,0,0,1,1.318.208c-1.017,1.54-1.869,3.172-2.764,4.777q-11.057,19.844-22.05,39.71c-3.079,5.392-5.944,10.907-9.066,16.271l-.308.107-.057.673q-21.556,38.671-42.968,77.4-42.087.043-84.182,0c1.6-3.337,3.488-6.524,5.264-9.768,7.992-14.7,16.192-29.261,24.069-43.956q25.86-.043,51.719,0c10.649-18.548,21.069-37.239,31.639-55.816Z" transform="translate(-87.04 -1.277)" fill="#595fb5"/>
    <path id="Path_574" data-name="Path 574" d="M684.91,3.97V145.192h24.47V45.885l44.637,65.4L798.3,44.331V145.192h25.186V3.97H796.391L754.2,69.16,711.529,3.97Z" transform="translate(-256.754 -1.127)" fill="#595fb5"/>
    <path id="Path_575" data-name="Path 575" d="M525.08,54.83h15.991V160.818H525.08Z" transform="translate(-211.384 -15.564)" fill="#595fb5"/>
    <path id="Path_576" data-name="Path 576" d="M523.16,0H541.9V17.782H523.16Z" transform="translate(-210.839)" fill="#595fb5"/>
    <path id="Path_577" data-name="Path 577" d="M584.5,12.42H601.2V42.791h32.942v14.8H601.2v62.963a14.931,14.931,0,0,0,1.64,6.982c2.829,5.371,10.513,11.745,31.3,4.3v13.721s-18.978,10.742-36.165.96c0,0-8.536-3.624-12.124-15.855a35.7,35.7,0,0,1-1.361-10.076V57.357l-14.086.236v-14.8h14.2Z" transform="translate(-224.252 -3.526)" fill="#595fb5"/>
    <path id="Path_578" data-name="Path 578" d="M914.41,3.97V146.144h106.224V123.228H940.313V85.509h70.776V62.951h-70.9V27.03H1019.8V3.97Z" transform="translate(-321.901 -1.127)" fill="#595fb5"/>
    <path id="Path_579" data-name="Path 579" d="M1075.6,3.97h30.257l34.733,49.915,34.46-49.915H1205.3l-49.413,69.336,52.493,72.716h-31.868l-35.807-53.109-37.54,53.23H1072.91l51.741-72.208Z" transform="translate(-366.894 -1.127)" fill="#595fb5"/>
    <path id="Path_580" data-name="Path 580" d="M422.724,72.524s23.4-8.83,21.964-34.253c0,0-.193-24.449-27.722-32a52.994,52.994,0,0,0-14.036-1.8H336.91l.179,141.222h71.076s41.593-.9,44.522-37.955c0,0,2.979-25.9-29.963-35.212ZM353.976,19.05h42.137c33.057-.115,32.1,23.16,32.1,23.16.494,26.554-29.841,26.017-29.841,26.017h-44.4Zm51.562,111.717H353.976V81.6h49.3c33.057-.122,32.1,23.153,32.1,23.153C435.873,131.3,405.537,130.767,405.537,130.767Z" transform="translate(-157.969 -1.268)" fill="#595fb5"/>
  </g>
</svg>
