<svg xmlns="http://www.w3.org/2000/svg" width="43.085" height="43.09" viewBox="0 0 43.085 43.09">
  <g id="Group_1" data-name="Group 1" transform="translate(-1689.455 -305.455)">
    <path id="Binance_Coin_BNB_" data-name="Binance Coin (BNB)" d="M41.367,26.08A20.993,20.993,0,1,1,26.075.628,20.994,20.994,0,0,1,41.367,26.08h0Z" transform="translate(1690 306)" fill="none" stroke="#d6d6d6" stroke-width="1"/>
    <path id="Vector" d="M11.56,5.05A4.573,4.573,0,0,0,10.81,5H.81A5.322,5.322,0,0,0,0,5.06a3.043,3.043,0,0,1,.58-.78L3.83,1.02a3.525,3.525,0,0,1,4.96,0l1.75,1.77A3.374,3.374,0,0,1,11.56,5.05Z" transform="translate(1705.189 317)" fill="none" stroke="#292d32" stroke-linecap="round" stroke-linejoin="round" stroke-width="1.5" opacity="0.4"/>
    <path id="Vector-2" data-name="Vector" d="M8,4a3.921,3.921,0,0,1-.58,2.06,3.985,3.985,0,0,1-6.84,0A3.921,3.921,0,0,1,0,4,4,4,0,0,1,8,4Z" transform="translate(1700 330)" fill="none" stroke="#292d32" stroke-linecap="round" stroke-linejoin="round" stroke-width="1.5"/>
    <path id="Vector-3" data-name="Vector" d="M2.98,0H0" transform="translate(1702.51 333.98)" fill="none" stroke="#292d32" stroke-linecap="round" stroke-linejoin="round" stroke-width="1.5"/>
    <path id="Vector-4" data-name="Vector" d="M0,0V2.99" transform="translate(1704 332.52)" fill="none" stroke="#292d32" stroke-linecap="round" stroke-linejoin="round" stroke-width="1.5"/>
    <path id="Vector-5" data-name="Vector" d="M0,0H24V24H0Z" transform="translate(1699 315)" fill="none" opacity="0"/>
    <path id="Vector-6" data-name="Vector" d="M20,5v5a4.724,4.724,0,0,1-5,5H5.63a3.593,3.593,0,0,0,.79-.94A3.921,3.921,0,0,0,7,12,4,4,0,0,0,0,9.36V5A4.654,4.654,0,0,1,4.19.06,5.322,5.322,0,0,1,5,0H15a4.573,4.573,0,0,1,.75.05A4.664,4.664,0,0,1,20,5Z" transform="translate(1701 322)" fill="none" stroke="#292d32" stroke-linecap="round" stroke-linejoin="round" stroke-width="1.5"/>
    <path id="Vector-7" data-name="Vector" d="M5,0H2A2,2,0,0,0,2,4H5" transform="translate(1716 327.5)" fill="none" stroke="#292d32" stroke-linecap="round" stroke-linejoin="round" stroke-width="1.5" opacity="0.4"/>
  </g>
</svg>
