<svg xmlns="http://www.w3.org/2000/svg" width="903.82" height="161.454" viewBox="0 0 903.82 161.454">
  <g id="Coinbase_Logo" data-name="Coinbase Logo" transform="translate(-65.891 -485.53)">
    <path id="Path_582" data-name="Path 582" d="M248.306,530.6c-32.834,0-58.489,24.925-58.489,58.292s25.007,58.079,58.489,58.079,58.924-25.138,58.924-58.292C307.222,555.743,282.223,530.6,248.306,530.6Zm.213,92.324c-18.7,0-32.4-14.522-32.4-34.024,0-19.723,13.48-34.237,32.178-34.237,18.919,0,32.612,14.735,32.612,34.237S267.217,622.929,248.52,622.929ZM314.4,555.965h16.31v88.854H356.8V532.779H314.4Zm-190.243-1.3c13.7,0,24.572,8.451,28.7,21.02h27.616c-5-26.869-27.181-45.075-56.093-45.075C91.545,530.6,65.89,555.53,65.89,588.9s25.007,58.079,58.489,58.079c28.264,0,50.875-18.206,55.88-45.3H152.865c-3.913,12.569-14.784,21.241-28.486,21.241C105.46,622.921,92.2,608.4,92.2,588.9,92.193,569.182,105.238,554.66,124.158,554.66Zm685.969,23.407-19.133-2.814c-9.131-1.3-15.654-4.332-15.654-11.486,0-7.8,8.483-11.7,20-11.7,12.61,0,20.659,5.415,22.4,14.3h25.22C840.13,543.83,822.737,530.613,796,530.613c-27.616,0-45.879,14.087-45.879,34.024,0,19.067,11.962,30.127,36.091,33.589l19.133,2.814c9.353,1.3,14.571,4.988,14.571,11.921,0,8.885-9.131,12.569-21.742,12.569-15.441,0-24.137-6.284-25.442-15.818H747.076c2.4,21.889,19.568,37.273,50.875,37.273,28.486,0,47.4-13,47.4-35.328C845.348,591.719,831.647,581.316,810.126,578.067ZM343.748,486.613c-9.566,0-16.745,6.933-16.745,16.466s7.179,16.474,16.745,16.474,16.745-6.933,16.745-16.466S353.323,486.613,343.748,486.613ZM726.63,571.135c0-24.269-14.784-40.521-46.092-40.521-29.569,0-46.092,14.957-49.358,37.929h25.877c1.3-8.885,8.262-16.253,23.046-16.253,13.266,0,19.789,5.85,19.789,13,0,9.32-11.962,11.7-26.746,13.217-20,2.166-44.788,9.1-44.788,35.107,0,20.158,15.006,33.154,38.922,33.154,18.7,0,30.438-7.8,36.313-20.158.87,11.051,9.131,18.206,20.659,18.206H739.47V621.633H726.639v-50.5Zm-25.655,28.174c0,14.957-13.045,26.008-28.92,26.008-9.788,0-18.05-4.119-18.05-12.782,0-11.051,13.266-14.087,25.442-15.383,11.74-1.083,18.263-3.684,21.528-8.672Zm-138.5-68.7a45.479,45.479,0,0,0-35.443,16.253V485.53h-26.09V644.818H526.6V630.083a45.254,45.254,0,0,0,35.878,16.9c31.308,0,55.01-24.7,55.01-58.079S593.35,530.6,562.477,530.6Zm-3.913,92.324c-18.7,0-32.4-14.522-32.4-34.024s13.915-34.237,32.612-34.237c18.919,0,32.178,14.522,32.178,34.237C590.963,608.407,577.261,622.929,558.564,622.929ZM438.55,530.6c-16.958,0-28.051,6.933-34.573,16.688V532.771H378.1V644.81h26.09V583.917c0-17.123,10.871-29.257,26.96-29.257,15.006,0,24.351,10.617,24.351,26.008v64.15h26.09V578.724C481.6,550.55,467.027,530.6,438.55,530.6Zm531.16,54.617c0-32.071-23.481-54.608-55.01-54.608-33.482,0-58.054,25.138-58.054,58.292,0,34.893,26.311,58.079,58.489,58.079,27.181,0,48.488-16.04,53.919-38.79H941.872c-3.914,9.968-13.48,15.6-26.311,15.6-16.745,0-29.355-10.4-32.178-28.609H969.7v-9.968Zm-84.792-8.672c4.135-15.6,15.875-23.186,29.355-23.186,14.784,0,26.09,8.451,28.7,23.186Z" fill="#3259a5"/>
  </g>
</svg>
