<svg xmlns="http://www.w3.org/2000/svg" xmlns:xlink="http://www.w3.org/1999/xlink" width="586" height="542" viewBox="0 0 586 542">
  <defs>
    <style>
      .cls-1, .cls-2, .cls-3 {
        fill: #6c757d;
      }

      .cls-1 {
        opacity: 0.8;
      }

      .cls-2 {
        opacity: 0.6;
      }

      .cls-3 {
        font-size: 22px;
        font-family: SegoeUI-Bold, Segoe UI;
        font-weight: 700;
      }

      .cls-4 {
        fill: url(#linear-gradient);
      }

      .cls-5 {
        fill: url(#linear-gradient-3);
      }

      .cls-6, .cls-8 {
        fill: #a066dc;
      }

      .cls-7 {
        fill: none;
      }

      .cls-7, .cls-8 {
        opacity: 0;
      }

      .cls-9 {
        filter: url(#Ellipse_195);
      }

      .cls-10 {
        filter: url(#Ellipse_194);
      }

      .cls-11 {
        filter: url(#Ellipse_193);
      }

      .cls-12 {
        filter: url(#Ellipse_192);
      }

      .cls-13 {
        filter: url(#Ellipse_191);
      }

      .cls-14 {
        filter: url(#Ellipse_189);
      }
    </style>
    <linearGradient id="linear-gradient" x1="0.5" x2="0.5" y2="1" gradientUnits="objectBoundingBox">
      <stop offset="0" stop-color="#aa79f0"/>
      <stop offset="1" stop-color="#944ec2"/>
    </linearGradient>
    <linearGradient id="linear-gradient-3" x1="0.5" x2="0.5" y2="1" gradientUnits="objectBoundingBox">
      <stop offset="0" stop-color="#fff"/>
      <stop offset="1" stop-color="#f9f9f9"/>
    </linearGradient>
    <filter id="Ellipse_189" x="442" y="235" width="144" height="144" filterUnits="userSpaceOnUse">
      <feOffset input="SourceAlpha"/>
      <feGaussianBlur stdDeviation="10" result="blur"/>
      <feFlood flood-opacity="0.251"/>
      <feComposite operator="in" in2="blur"/>
      <feComposite in="SourceGraphic"/>
    </filter>
    <filter id="Ellipse_191" x="45" y="196" width="144" height="144" filterUnits="userSpaceOnUse">
      <feOffset input="SourceAlpha"/>
      <feGaussianBlur stdDeviation="10" result="blur-2"/>
      <feFlood flood-opacity="0.251"/>
      <feComposite operator="in" in2="blur-2"/>
      <feComposite in="SourceGraphic"/>
    </filter>
    <filter id="Ellipse_192" x="288" y="319" width="144" height="144" filterUnits="userSpaceOnUse">
      <feOffset input="SourceAlpha"/>
      <feGaussianBlur stdDeviation="10" result="blur-3"/>
      <feFlood flood-opacity="0.251"/>
      <feComposite operator="in" in2="blur-3"/>
      <feComposite in="SourceGraphic"/>
    </filter>
    <filter id="Ellipse_193" x="281" y="90" width="144" height="144" filterUnits="userSpaceOnUse">
      <feOffset input="SourceAlpha"/>
      <feGaussianBlur stdDeviation="10" result="blur-4"/>
      <feFlood flood-opacity="0.251"/>
      <feComposite operator="in" in2="blur-4"/>
      <feComposite in="SourceGraphic"/>
    </filter>
    <filter id="Ellipse_194" x="45" y="0" width="144" height="144" filterUnits="userSpaceOnUse">
      <feOffset input="SourceAlpha"/>
      <feGaussianBlur stdDeviation="10" result="blur-5"/>
      <feFlood flood-opacity="0.251"/>
      <feComposite operator="in" in2="blur-5"/>
      <feComposite in="SourceGraphic"/>
    </filter>
    <filter id="Ellipse_195" x="21" y="398" width="144" height="144" filterUnits="userSpaceOnUse">
      <feOffset input="SourceAlpha"/>
      <feGaussianBlur stdDeviation="10" result="blur-6"/>
      <feFlood flood-opacity="0.251"/>
      <feComposite operator="in" in2="blur-6"/>
      <feComposite in="SourceGraphic"/>
    </filter>
  </defs>
  <g id="Group_3560" data-name="Group 3560" transform="translate(-1059 -222.295)">
    <path id="Ellipse_1" data-name="Ellipse 1" class="cls-1" d="M254.5,0h.47l.633,0a3,3,0,0,1-.025,6L254.5,6a3,3,0,0,1-.012-6Zm30.655,1.846a3.034,3.034,0,0,1,.371.023l.131.016.027,0,.041,0,.381.047.021,0,.068.008.072.009.013,0,.338.042h.011a3,3,0,0,1-.76,5.952L284.8,7.825a3,3,0,0,1,.351-5.979ZM315.364,7.4a3,3,0,0,1,.706.085l.5.124.011,0,.085.021.022.005.495.125a3,3,0,0,1-1.491,5.812l-1.043-.261a3,3,0,0,1,.714-5.914Zm29.3,9.212a2.99,2.99,0,0,1,1.078.2l.383.147.009,0,.1.04.023.009.043.017.039.015.036.014.08.031h0l.33.128A3,3,0,0,1,344.6,22.8l-1-.387a3,3,0,0,1,1.07-5.8Zm27.952,12.734a2.981,2.981,0,0,1,1.4.347l.072.038.044.023.037.02.832.445,0,0,.006,0a3,3,0,0,1-2.85,5.28L371.211,35a3,3,0,0,1,1.408-5.652ZM398.806,45.4a2.981,2.981,0,0,1,1.721.546l.329.231.016.011.068.048.413.291.03.021.053.037a3,3,0,0,1-3.473,4.892l-.878-.618a3,3,0,0,1,1.721-5.461Zm24.04,19.119a2.983,2.983,0,0,1,1.993.761l.073.065,0,0,.061.055.694.627a3,3,0,0,1-4.032,4.443l-.8-.72a3,3,0,0,1,2.007-5.233ZM444.39,86.413a2.987,2.987,0,0,1,2.254,1.023l.024.028.04.046c.23.264.448.516.677.781a3,3,0,0,1-4.553,3.907l-.7-.811a3,3,0,0,1,2.262-4.974Zm18.726,24.347a2.989,2.989,0,0,1,2.485,1.323l.37.549.256.382a3,3,0,0,1-5,3.321l-.6-.891a3,3,0,0,1,2.485-4.684Zm15.618,26.447a2.992,2.992,0,0,1,2.671,1.639l.367.721.141.279a3,3,0,0,1-5.365,2.687l-.486-.958a3.006,3.006,0,0,1,2.673-4.367Zm12.258,28.161a2.993,2.993,0,0,1,2.815,1.978l.23.636.009.025.024.068.117.326a3,3,0,0,1-5.655,2.006l-.365-1.011a3.007,3.007,0,0,1,2.824-4.028Zm8.7,29.455a2.993,2.993,0,0,1,2.912,2.315l.038.166.006.026.009.04q.1.429.194.859a3,3,0,1,1-5.854,1.314l-.238-1.049a3.008,3.008,0,0,1,2.933-3.672Zm5,30.3a2.993,2.993,0,0,1,2.973,2.685v.009l.005.051.005.051v.008q.051.5.1,1a3,3,0,0,1-5.973.571l-.107-1.07a3.008,3.008,0,0,1,2.994-3.307Zm1.269,30.7h.058a2.992,2.992,0,0,1,2.936,3.056q-.01.549-.023,1.1a3,3,0,1,1-6-.139l.022-1.072A3.008,3.008,0,0,1,505.96,255.825Zm-2.445,30.619a3.027,3.027,0,0,1,.425.03,2.992,2.992,0,0,1,2.546,3.371c-.031.223-.061.433-.094.655l0,.03,0,.031-.057.391a3,3,0,1,1-5.937-.867l.153-1.062A3.009,3.009,0,0,1,503.515,286.444Zm-6.167,30.085a3,3,0,0,1,2.9,3.771l0,.007v0l-.015.054-.007.026-.012.044-.018.067-.009.034-.016.058-.008.031-.016.059-.009.033-.018.067-.011.04-.011.042-.011.041-.02.074-.006.024-.021.077v0l-.084.308a3,3,0,0,1-5.78-1.611l.282-1.035A3.009,3.009,0,0,1,497.348,316.529Zm-9.825,29.1a3,3,0,0,1,2.777,4.118l-.064.156q-.179.438-.36.876a3,3,0,0,1-5.545-2.291l.408-.994A3.009,3.009,0,0,1,487.523,345.624ZM474.19,373.292a3,3,0,0,1,2.618,4.452l-.009.016-.05.089-.043.077,0,.005c-.141.251-.277.492-.418.743l-.006.011-.025.044a3,3,0,0,1-5.215-2.968l.527-.936A3.007,3.007,0,0,1,474.19,373.292Zm-16.623,25.829a3,3,0,0,1,2.426,4.755l-.458.623-.024.032-.03.04-.153.207a3,3,0,1,1-4.822-3.57l.637-.865A3,3,0,0,1,457.567,399.121Zm-19.646,23.615a3,3,0,0,1,2.2,5.037l-.229.243-.056.059-.039.041-.04.043-.422.445A3,3,0,0,1,435,424.458l.738-.781A3,3,0,0,1,437.921,422.736Zm-22.367,21.057a3,3,0,0,1,1.923,5.3q-.423.352-.847.7a3,3,0,0,1-3.82-4.627l.827-.686A2.993,2.993,0,0,1,415.554,443.793ZM390.8,461.98a3,3,0,0,1,1.644,5.511l-.03.019-.206.133-.015.01-.215.138-.025.016-.072.046-.042.027-.026.017-.323.207a3,3,0,0,1-3.213-5.067l.9-.58A2.991,2.991,0,0,1,390.8,461.98Zm-26.782,15.037a3,3,0,0,1,1.33,5.691l-.317.153-.039.019-.05.024-.6.287-.015.007a3,3,0,0,1-2.578-5.418l.968-.465A2.991,2.991,0,0,1,364.017,477.016ZM335.6,488.664a3,3,0,0,1,.97,5.839l-.316.107-.013,0-.055.019-.017.006-.36.121-.036.012-.03.01-.235.079a3,3,0,0,1-1.887-5.7l1.018-.343A3,3,0,0,1,335.6,488.664Zm-29.629,8.075a3,3,0,0,1,.613,5.937l-.152.032-.055.011-.013,0-.462.1-.057.012h0l-.337.069a3,3,0,0,1-1.194-5.88l1.053-.216A3.015,3.015,0,0,1,305.972,496.74Zm-30.4,4.392a3,3,0,0,1,.271,5.988l-1.138.092a3,3,0,0,1-.449-5.983l1.072-.086Q275.451,501.132,275.573,501.132Zm-31.8.644.121,0,1.073.043a3,3,0,0,1-.209,6l-.589-.023-.061,0-.465-.019a3,3,0,0,1,.13-6Zm-30.557-3.141a3.025,3.025,0,0,1,.485.039l1.06.172a3,3,0,0,1-.93,5.928l-.64-.1-.045-.007-.023,0-.4-.065h-.01a3,3,0,0,1,.5-5.958Zm-29.939-6.842a3,3,0,0,1,.842.121l1.03.3a3,3,0,0,1-1.651,5.768l-1.09-.318a3,3,0,0,1,.868-5.872ZM154.4,481.333a3,3,0,0,1,1.187.246l.986.425a3,3,0,0,1-2.352,5.52l-.005,0,0,0-.116-.05-.063-.027-.029-.013-.819-.354a3,3,0,0,1,1.217-5.743Zm-27.379-13.918a2.992,2.992,0,0,1,1.515.412l.927.542a3,3,0,0,1-3,5.2c-.332-.193-.657-.384-.988-.578a3,3,0,0,1,1.545-5.573Zm-25.481-17.154a2.993,2.993,0,0,1,1.82.615l.854.651a3,3,0,0,1-3.614,4.789l-.047-.036-.02-.015-.208-.158-.017-.013-.2-.151-.037-.029-.054-.041-.04-.031-.094-.072-.032-.024-.064-.049-.008-.006-.082-.063a3,3,0,0,1,1.841-5.369ZM78.333,430.138a3,3,0,0,1,2.1.854l.769.75a3,3,0,0,1-4.163,4.321l-.445-.433-.038-.037-.041-.04-.077-.075-.036-.036-.044-.043-.051-.05-.01-.01-.076-.074a3,3,0,0,1,2.112-5.128Zm-20.6-22.789a3,3,0,0,1,2.347,1.125l.672.838a3,3,0,0,1-4.661,3.778l-.124-.154-.044-.054-.023-.029-.331-.413-.014-.018-.046-.058-.128-.16a3,3,0,0,1,2.354-4.853ZM40.06,382.226a3.006,3.006,0,0,1,2.56,1.425l.565.913a3,3,0,0,1-5.1,3.168q-.29-.467-.579-.935a3,3,0,0,1,2.549-4.57ZM25.591,355.135a3.009,3.009,0,0,1,2.734,1.75l.449.975a3,3,0,0,1-5.439,2.534l-.022-.047-.326-.707-.011-.023-.031-.067-.085-.186a3,3,0,0,1,2.73-4.228ZM14.563,326.473a3.01,3.01,0,0,1,2.866,2.1l.325,1.023a3,3,0,0,1-5.708,1.85c-.114-.356-.231-.724-.343-1.08a3,3,0,0,1,2.86-3.889Zm-7.413-29.8a3.009,3.009,0,0,1,2.953,2.456l.2,1.056A3,3,0,1,1,4.4,301.3l-.024-.125-.009-.049,0-.015c-.058-.309-.113-.605-.17-.914a3,3,0,0,1,2.952-3.522Zm-3.7-30.49a3.008,3.008,0,0,1,3,2.821l.066,1.072a3,3,0,0,1-5.986.406c-.019-.295-.036-.575-.054-.87v-.019l0-.046-.011-.186a2.992,2.992,0,0,1,2.809-3.173Q3.358,266.181,3.449,266.181Zm.016-30.728q.092,0,.186.006a3.008,3.008,0,0,1,2.818,3.178l-.063,1.073a3,3,0,0,1-5.991-.321c.014-.253.03-.524.045-.777q.01-.171.021-.341A2.992,2.992,0,0,1,3.465,235.453ZM7.21,204.968a3.009,3.009,0,0,1,2.959,3.549l-.194,1.057a3,3,0,0,1-5.907-1.054l.046-.253,0-.021.01-.054q.07-.385.142-.77A2.992,2.992,0,0,1,7.21,204.968Zm7.462-29.791a3.008,3.008,0,0,1,2.866,3.909l-.322,1.024a3,3,0,0,1-5.732-1.773l.016-.05.022-.07.009-.029.04-.127v0l.119-.379.007-.022.028-.09.1-.311A2.993,2.993,0,0,1,14.671,175.177Zm11.076-28.645a3.006,3.006,0,0,1,2.729,4.255l-.446.977a3,3,0,0,1-5.471-2.463l.2-.434.018-.039.027-.059.045-.1.018-.038.033-.072.021-.047.022-.049.091-.2A2.992,2.992,0,0,1,25.747,146.531Zm14.51-27.069a3,3,0,0,1,2.552,4.58l-.562.915a3,3,0,0,1-5.118-3.131l.429-.7.007-.011.064-.1.006-.01.068-.11.009-.015A2.99,2.99,0,0,1,40.257,119.462Zm17.709-25.1a3,3,0,0,1,2.341,4.879l-.67.84a3,3,0,1,1-4.7-3.731l.333-.419.013-.016.072-.091.023-.029.244-.3A2.987,2.987,0,0,1,57.966,94.365ZM78.594,71.606a3,3,0,0,1,2.1,5.149l-.767.752A3,3,0,0,1,75.7,73.246l.048-.047.75-.735A2.984,2.984,0,0,1,78.594,71.606ZM101.83,51.517a3,3,0,0,1,1.821,5.388l-.853.654a3,3,0,0,1-3.674-4.744l.049-.038.022-.017.212-.163.006,0,.215-.165.015-.011.069-.053,0,0,.306-.234A2.981,2.981,0,0,1,101.83,51.517Zm25.5-17.118a3,3,0,0,1,1.517,5.592l-.926.545a3,3,0,0,1-3.065-5.158h0l.008,0,.948-.559A2.981,2.981,0,0,1,127.335,34.4Zm27.4-13.879a3,3,0,0,1,1.186,5.757l-.984.428a3,3,0,0,1-2.4-5.5l.1-.043.037-.016.021-.009.072-.031.008,0,.083-.036.018-.008.05-.022.621-.269A2.986,2.986,0,0,1,154.736,20.52ZM183.63,10.1a3,3,0,0,1,.836,5.882l-1.029.3a3,3,0,0,1-1.73-5.745l1.094-.323A3,3,0,0,1,183.63,10.1Zm29.953-6.8a3,3,0,0,1,.474,5.962L213,9.442a3,3,0,0,1-1.015-5.914l.5-.083.609-.1A3.019,3.019,0,0,1,213.583,3.3Zm30.559-3.1a3,3,0,0,1,.113,6l-1.072.046A3,3,0,0,1,242.9.259l.036,0,.086,0h.012l.1,0h.005l.089,0h.015l.089,0,.081,0,.051,0h0l.546-.023Z" transform="translate(1070 248.295)"/>
    <path id="Ellipse_4" data-name="Ellipse 4" class="cls-2" d="M148.5,0a2,2,0,1,1,.005,4H148.5a2,2,0,1,1,0-4Zm19.681,1.306a2.018,2.018,0,0,1,.268.018h.011a2,2,0,0,1-.536,3.964h-.005a2,2,0,0,1,.263-3.983Zm19.326,3.925a2,2,0,0,1,.526.071l.007,0h0l.009,0a2,2,0,0,1-1.067,3.855h-.005a2,2,0,0,1,.528-3.929Zm18.622,6.5a1.994,1.994,0,0,1,.776.158l.018.008a2,2,0,0,1-1.575,3.677l0,0a2,2,0,0,1,.786-3.84ZM223.7,20.677a1.991,1.991,0,0,1,1.021.282l.011.006a2,2,0,0,1-2.055,3.432l0,0a2,2,0,0,1,1.027-3.717ZM239.917,31.9a1.991,1.991,0,0,1,1.239.431l.017.014a2,2,0,0,1-2.5,3.123l0,0a2,2,0,0,1,1.248-3.564Zm14.565,13.3a1.994,1.994,0,0,1,1.445.617l0,0h0a2,2,0,1,1-2.889,2.767l0,0a2,2,0,0,1,1.444-3.383Zm12.655,15.125a2,2,0,0,1,1.617.821l0,0,0,0a2,2,0,0,1-3.233,2.355l0,0a2,2,0,0,1,1.615-3.178Zm10.508,16.687a2,2,0,0,1,1.758,1.044l.006.011h0a2,2,0,1,1-3.521,1.9l0,0a2,2,0,0,1,1.759-2.949ZM285.8,94.967a2,2,0,0,1,1.87,1.29l0,.012v0l0,.007a2,2,0,0,1-3.748,1.4l0-.005a2,2,0,0,1,1.873-2.7Zm5.64,18.9a2,2,0,0,1,1.947,1.553l0,.021a2,2,0,0,1-3.9.871V116.3a2,2,0,0,1,1.953-2.44Zm3.018,19.485a2,2,0,0,1,1.99,1.828v.013a2,2,0,0,1-3.986.335v-.005a2,2,0,0,1,1.821-2.164Q294.374,133.347,294.46,133.347Zm.37,19.723.1,0a2,2,0,0,1,1.9,2.093v.005a2,2,0,0,1-4-.191v-.005A2,2,0,0,1,294.83,153.071Zm-2.269,19.59a2,2,0,0,1,1.97,2.356l0,.022a2,2,0,0,1-3.932-.736V174.3A2,2,0,0,1,292.561,172.661Zm-4.9,19.1a2,2,0,0,1,1.9,2.629v0l0,.011a2,2,0,0,1-3.794-1.266l0-.005A2,2,0,0,1,287.661,191.758Zm-7.454,18.254A2,2,0,0,1,282,212.893v0h0a2,2,0,1,1-3.591-1.761l0,0A2,2,0,0,1,280.207,210.012Zm-9.861,17.078A2,2,0,0,1,272,230.205l0,0a2,2,0,0,1-3.321-2.23l0,0A2,2,0,0,1,270.346,227.09Zm-12.072,15.6a2,2,0,0,1,1.5,3.324l-.006.007h0a2,2,0,1,1-2.992-2.655l0,0A2,2,0,0,1,258.275,242.687Zm-14.053,13.84a2,2,0,0,1,1.306,3.516h0l0,0h0a2,2,0,0,1-2.61-3.031l0,0A1.992,1.992,0,0,1,244.222,256.527Zm-15.777,11.837a2,2,0,0,1,1.092,3.677l0,0a2,2,0,0,1-2.18-3.353l0,0A1.99,1.99,0,0,1,228.446,268.364Zm-17.218,9.613a2,2,0,0,1,.859,3.807l-.014.006a2,2,0,0,1-1.7-3.619l0,0A1.992,1.992,0,0,1,211.227,277.977Zm-18.354,7.206a2,2,0,0,1,.6,3.907h0l-.008,0a2,2,0,0,1-1.2-3.816l.005,0A2,2,0,0,1,192.873,285.183Zm-19.161,4.663a2,2,0,0,1,.344,3.97h-.011a2,2,0,0,1-.681-3.942h.005A2.011,2.011,0,0,1,173.713,289.846ZM154.1,291.9a2,2,0,0,1,.073,4h-.007a2,2,0,0,1-.148-4h.081Zm-19.731-.566c.063,0,.128,0,.192.009h.005a2,2,0,0,1-.375,3.982h-.01a2,2,0,0,1,.188-3.991ZM114.9,288.143a2.006,2.006,0,0,1,.457.053h.005a2,2,0,0,1-.911,3.895h-.005a2,2,0,0,1,.454-3.948Zm-18.851-5.778a2,2,0,0,1,.714.132l.005,0a2,2,0,1,1-1.428,3.736h0l0,0a2,2,0,0,1,.715-3.869Zm-17.9-8.27a1.992,1.992,0,0,1,.958.245l0,0a2,2,0,1,1-1.918,3.51l0,0a2,2,0,0,1,.961-3.755Zm-16.63-10.6a1.992,1.992,0,0,1,1.184.39l0,0a2,2,0,1,1-2.372,3.221h0l-.009-.007a2,2,0,0,1,1.194-3.606ZM46.459,250.759a1.994,1.994,0,0,1,1.391.563l0,0a2,2,0,0,1-2.776,2.88l-.014-.013a2,2,0,0,1,1.4-3.433ZM33.235,236.125a2,2,0,0,1,1.572.762l0,0a2,2,0,0,1-3.136,2.484l-.008-.01h0a2,2,0,0,1,1.569-3.238Zm-11.14-16.274a2,2,0,0,1,1.725.985l0,0a2,2,0,0,1-3.444,2.035l0-.008a2,2,0,0,1,1.721-3.015Zm-8.839-17.626a2,2,0,0,1,1.845,1.227l0,0a2,2,0,0,1-3.687,1.552L11.412,205a2,2,0,0,1,1.844-2.772ZM6.9,183.563a2,2,0,0,1,1.931,1.486v.005a2,2,0,0,1-3.863,1.037l-.006-.021A2,2,0,0,1,6.9,183.563ZM3.13,164.207a2,2,0,0,1,1.982,1.753v.005a2,2,0,0,1-3.968.5v-.011h0a2,2,0,0,1,1.987-2.248ZM2.007,144.513h.02a2,2,0,0,1,1.98,2.02v.005a2,2,0,0,1-2,1.98h-.02a2,2,0,0,1-1.98-2.02v-.005h0A2,2,0,0,1,2.007,144.513Zm1.516-19.662A2,2,0,0,1,5.5,127.139v.005a2,2,0,0,1-3.959-.569v-.017A2,2,0,0,1,3.523,124.851Zm4.163-19.275a2,2,0,0,1,1.923,2.555v.005a2,2,0,0,1-3.843-1.109v0l0-.01A2,2,0,0,1,7.686,105.576Zm6.747-18.527a2,2,0,0,1,1.827,2.811l0,0a2,2,0,0,1-3.66-1.613l.007-.015A2,2,0,0,1,14.433,87.049Zm9.2-17.442a2,2,0,0,1,1.7,3.051l0,0a2,2,0,0,1-3.409-2.093l.007-.011h0A2,2,0,0,1,23.632,69.607ZM35.1,53.562a2,2,0,0,1,1.544,3.27l0,0A2,2,0,0,1,33.548,54.3l0,0A2,2,0,0,1,35.1,53.562ZM48.612,39.2a2,2,0,0,1,1.362,3.465l0,0a2,2,0,0,1-2.724-2.929l.012-.012A1.993,1.993,0,0,1,48.612,39.2ZM63.925,26.77A2,2,0,0,1,65.08,30.4l0,0a2,2,0,0,1-2.307-3.268l0,0A1.99,1.99,0,0,1,63.925,26.77ZM80.766,16.507a2,2,0,0,1,.925,3.774l0,0a2,2,0,0,1-1.854-3.545l.018-.01A1.991,1.991,0,0,1,80.766,16.507ZM98.834,8.6a2,2,0,0,1,.676,3.883l-.005,0a2,2,0,0,1-1.352-3.765h.007A2,2,0,0,1,98.834,8.6ZM117.8,3.21a2,2,0,0,1,.414,3.957h-.005a2,2,0,0,1-.831-3.913h0l.01,0A2.009,2.009,0,0,1,117.8,3.21ZM137.329.418a2,2,0,0,1,.148,3.994h-.005a2,2,0,0,1-.3-3.989h.006Q137.253.418,137.329.418Z" transform="translate(1176 354.295)"/>
    <text id="Develocity_Eco-system" data-name="Our Vision" class="cls-3" transform="translate(1323 495.295)"><tspan x="-54.323" y="0">Our</tspan><tspan x="-59.222" y="30">Vision</tspan></text>
    <circle id="Ellipse_70" data-name="Ellipse 70" class="cls-4" cx="13" cy="13" r="13" transform="translate(1059 487.295)"/>
    <circle id="Ellipse_71" data-name="Ellipse 71" class="cls-4" cx="20" cy="20" r="20" transform="translate(1301 232.295)"/>
    <g class="cls-14" transform="matrix(1, 0, 0, 1, 1059, 222.29)">
      <circle id="Ellipse_189-2" data-name="Ellipse 189" class="cls-5" cx="42" cy="42" r="42" transform="translate(472 265)"/>
    </g>
    <g class="cls-13" transform="matrix(1, 0, 0, 1, 1059, 222.29)">
      <circle id="Ellipse_191-2" data-name="Ellipse 191" class="cls-5" cx="42" cy="42" r="42" transform="translate(75 226)"/>
    </g>
    <g class="cls-12" transform="matrix(1, 0, 0, 1, 1059, 222.29)">
      <circle id="Ellipse_192-2" data-name="Ellipse 192" class="cls-5" cx="42" cy="42" r="42" transform="translate(318 349)"/>
    </g>
    <g class="cls-11" transform="matrix(1, 0, 0, 1, 1059, 222.29)">
      <circle id="Ellipse_193-2" data-name="Ellipse 193" class="cls-5" cx="42" cy="42" r="42" transform="translate(311 120)"/>
    </g>
    <g class="cls-10" transform="matrix(1, 0, 0, 1, 1059, 222.29)">
      <circle id="Ellipse_194-2" data-name="Ellipse 194" class="cls-5" cx="42" cy="42" r="42" transform="translate(75 30)"/>
    </g>
    <g class="cls-9" transform="matrix(1, 0, 0, 1, 1059, 222.29)">
      <circle id="Ellipse_195-2" data-name="Ellipse 195" class="cls-5" cx="42" cy="42" r="42" transform="translate(51 428)"/>
    </g>
    <circle id="Ellipse_72" data-name="Ellipse 72" class="cls-4" cx="10" cy="10" r="10" transform="translate(1212 597.295)"/>
    <circle id="Ellipse_75" data-name="Ellipse 75" class="cls-4" cx="21.5" cy="21.5" r="21.5" transform="translate(1433 695.295)"/>
    <circle id="Ellipse_76" data-name="Ellipse 76" class="cls-4" cx="9" cy="9" r="9" transform="translate(1276 741.295)"/>
    <circle id="Ellipse_73" data-name="Ellipse 73" class="cls-4" cx="12.5" cy="12.5" r="12.5" transform="translate(1306 344.295)"/>
    <circle id="Ellipse_74" data-name="Ellipse 74" class="cls-4" cx="7" cy="7" r="7" transform="translate(1458 286.295)"/>
    <g id="teacher" transform="translate(1158 276.295)">
      <path id="Vector" class="cls-6" d="M15.285,23.627a6.712,6.712,0,0,1-3.57-.975l-9.03-5.9a5.905,5.905,0,0,1,0-9.9L11.73.977a6.966,6.966,0,0,1,7.14.015l8.985,5.9a5.9,5.9,0,0,1,0,9.87l-8.985,5.9A6.6,6.6,0,0,1,15.285,23.627Zm0-21.375a4.206,4.206,0,0,0-2.325.615L3.93,8.747a3.644,3.644,0,0,0,0,6.12l9.03,5.9a4.81,4.81,0,0,0,4.68,0l8.985-5.9a3.662,3.662,0,0,0,0-6.12l-8.985-5.9A4.577,4.577,0,0,0,15.285,2.252Z" transform="translate(2.73 1.873)"/>
      <path id="Vector-2" data-name="Vector" class="cls-6" d="M10.7,15.63a6.154,6.154,0,0,1-1.875-.27L4.035,13.77A6.2,6.2,0,0,1,0,8.16L.015,1.125A1.133,1.133,0,0,1,1.14,0,1.133,1.133,0,0,1,2.265,1.125L2.25,8.16a4.035,4.035,0,0,0,2.5,3.48L9.54,13.23a4.634,4.634,0,0,0,2.31,0l4.785-1.59a4.032,4.032,0,0,0,2.5-3.465V1.215a1.125,1.125,0,0,1,2.25,0v6.96a6.238,6.238,0,0,1-4.035,5.61l-4.785,1.59A6.667,6.667,0,0,1,10.7,15.63Z" transform="translate(7.305 18.495)"/>
      <path id="Vector-3" data-name="Vector" class="cls-6" d="M1.125,11.25A1.133,1.133,0,0,1,0,10.125v-9A1.133,1.133,0,0,1,1.125,0,1.133,1.133,0,0,1,2.25,1.125v9A1.133,1.133,0,0,1,1.125,11.25Z" transform="translate(30.975 12.375)"/>
      <path id="Vector-4" data-name="Vector" class="cls-7" d="M0,0H36V36H0Z"/>
    </g>
    <g id="vuesax_outline_bitcoin-convert" data-name="vuesax/outline/bitcoin-convert" transform="translate(770 486.295)">
      <g id="bitcoin-convert" transform="translate(364 188)">
        <path id="Vector-5" data-name="Vector" class="cls-6" d="M1.119,12.75a1.12,1.12,0,0,1-.96-1.695L1.734,8.43A1.127,1.127,0,0,1,3.669,9.585l-.405.675a9.408,9.408,0,0,0,7.245-9.135,1.125,1.125,0,0,1,2.25,0A11.667,11.667,0,0,1,1.119,12.75Z" transform="translate(22.881 22.83)"/>
        <path id="Vector-6" data-name="Vector" class="cls-6" d="M1.125,12.75A1.133,1.133,0,0,1,0,11.625,11.645,11.645,0,0,1,11.625,0a1.12,1.12,0,0,1,.96,1.7L11.01,4.32A1.127,1.127,0,0,1,9.075,3.165L9.48,2.49a9.407,9.407,0,0,0-7.245,9.135A1.111,1.111,0,0,1,1.125,12.75Z" transform="translate(0.375 0.33)"/>
        <path id="Vector-7" data-name="Vector" class="cls-6" d="M5.34,5.625H1.125A1.133,1.133,0,0,1,0,4.5V1.125A1.133,1.133,0,0,1,1.125,0H5.34A2.9,2.9,0,0,1,8.16,2.82,2.833,2.833,0,0,1,5.34,5.625ZM2.25,3.375H5.34a.57.57,0,0,0,.57-.57.637.637,0,0,0-.57-.57H2.25Z" transform="translate(8.805 18.495)"/>
        <path id="Vector-8" data-name="Vector" class="cls-6" d="M5.955,5.625H1.125A1.133,1.133,0,0,1,0,4.5V1.125A1.133,1.133,0,0,1,1.125,0h4.83a2.952,2.952,0,0,1,3.06,2.82A2.931,2.931,0,0,1,5.955,5.625Zm-3.69-2.25H5.97c.48,0,.81-.3.81-.57s-.33-.57-.81-.57H2.265Z" transform="translate(8.79 21.87)"/>
        <path id="Vector-9" data-name="Vector" class="cls-6" d="M1.125,3.945A1.133,1.133,0,0,1,0,2.82v-1.7A1.133,1.133,0,0,1,1.125,0,1.133,1.133,0,0,1,2.25,1.125v1.7A1.123,1.123,0,0,1,1.125,3.945Z" transform="translate(11.505 25.23)"/>
        <path id="Vector-10" data-name="Vector" class="cls-6" d="M1.125,3.945A1.133,1.133,0,0,1,0,2.82v-1.7A1.133,1.133,0,0,1,1.125,0,1.133,1.133,0,0,1,2.25,1.125v1.7A1.123,1.123,0,0,1,1.125,3.945Z" transform="translate(11.505 16.785)"/>
        <path id="Vector-11" data-name="Vector" class="cls-6" d="M10.38,20.76A10.38,10.38,0,0,1,10.38,0c.27,0,.51.015.78.03a10.439,10.439,0,0,1,9.57,9.555c.015.33.03.555.03.8A10.383,10.383,0,0,1,10.38,20.76Zm0-18.525a8.13,8.13,0,1,0,8.145,8.13c0-.195-.015-.39-.03-.585A8.179,8.179,0,0,0,11.01,2.25C10.815,2.25,10.6,2.235,10.38,2.235Z" transform="translate(2.625 12.615)"/>
        <path id="Vector-12" data-name="Vector" class="cls-6" d="M10.38,20.76H9.645A1.128,1.128,0,0,1,8.52,19.725,8.161,8.161,0,0,0,1.035,12.24,1.128,1.128,0,0,1,0,11.115V10.38A10.388,10.388,0,1,1,10.38,20.76ZM2.235,10.125A10.465,10.465,0,0,1,10.62,18.51a8.132,8.132,0,1,0-8.385-8.385Z" transform="translate(12.615 2.64)"/>
        <path id="Vector-13" data-name="Vector" class="cls-8" d="M0,0H36V36H0Z"/>
      </g>
    </g>
    <g id="vuesax_outline_bubble" data-name="vuesax/outline/bubble" transform="translate(1222 -269.705)">
      <g id="bubble" transform="translate(172 636)">
        <path id="Vector-14" data-name="Vector" class="cls-6" d="M8.82,17.64a8.82,8.82,0,1,1,8.82-8.82A8.834,8.834,0,0,1,8.82,17.64Zm0-15.39a6.57,6.57,0,1,0,6.57,6.57A6.578,6.578,0,0,0,8.82,2.25Z" transform="translate(14.565 1.875)"/>
        <path id="Vector-15" data-name="Vector" class="cls-6" d="M5.745,11.49A5.745,5.745,0,1,1,11.49,5.745,5.755,5.755,0,0,1,5.745,11.49Zm0-9.24a3.5,3.5,0,1,0,3.5,3.5A3.5,3.5,0,0,0,5.745,2.25Z" transform="translate(3.795 18.795)"/>
        <path id="Vector-16" data-name="Vector" class="cls-6" d="M4.965,9.93A4.965,4.965,0,1,1,9.93,4.965,4.971,4.971,0,0,1,4.965,9.93Zm0-7.7A2.715,2.715,0,1,0,7.68,4.95,2.714,2.714,0,0,0,4.965,2.235Z" transform="translate(19.965 24.195)"/>
        <path id="Vector-17" data-name="Vector" class="cls-7" d="M0,0H36V36H0Z"/>
        <path id="Vector-18" data-name="Vector" class="cls-7" d="M0,0H36V36H0Z"/>
      </g>
    </g>
    <g id="vuesax_outline_format-square" data-name="vuesax/outline/format-square" transform="translate(922 92.295)">
      <g id="format-square" transform="translate(236 380)">
        <path id="Vector-19" data-name="Vector" class="cls-6" d="M20.7,26.25H5.55a1.166,1.166,0,0,1-.87-.405,1.1,1.1,0,0,1-.24-.93,3.306,3.306,0,0,0,.06-.54A2.638,2.638,0,0,0,1.875,21.75a2.13,2.13,0,0,0-.54.06,1.15,1.15,0,0,1-.93-.24A1.119,1.119,0,0,1,0,20.7V5.55a1.166,1.166,0,0,1,.4-.87,1.086,1.086,0,0,1,.93-.24,2.13,2.13,0,0,0,.54.06A2.638,2.638,0,0,0,4.5,1.875a2.13,2.13,0,0,0-.06-.54A1.15,1.15,0,0,1,4.68.4,1.119,1.119,0,0,1,5.55,0H20.7a1.166,1.166,0,0,1,.87.4,1.1,1.1,0,0,1,.24.93,3.306,3.306,0,0,0-.06.54A2.638,2.638,0,0,0,24.375,4.5a2.13,2.13,0,0,0,.54-.06,1.15,1.15,0,0,1,.93.24,1.119,1.119,0,0,1,.405.87V20.7a1.166,1.166,0,0,1-.405.87,1.1,1.1,0,0,1-.93.24,3.306,3.306,0,0,0-.54-.06,2.638,2.638,0,0,0-2.625,2.625,2.13,2.13,0,0,0,.06.54A1.124,1.124,0,0,1,20.7,26.25ZM6.735,24h12.78A4.885,4.885,0,0,1,24,19.515V6.735A4.885,4.885,0,0,1,19.515,2.25H6.735A4.885,4.885,0,0,1,2.25,6.735v12.78A4.885,4.885,0,0,1,6.735,24Z" transform="translate(4.875 4.875)"/>
        <path id="Vector-20" data-name="Vector" class="cls-6" d="M4.875,9.75a5.08,5.08,0,0,1-.96-.09A4.878,4.878,0,1,1,9.66,3.9a5.36,5.36,0,0,1,.09.975A4.884,4.884,0,0,1,4.875,9.75Zm0-7.5A2.621,2.621,0,0,0,4.35,7.44a1.941,1.941,0,0,0,.525.06A2.638,2.638,0,0,0,7.5,4.875a2.13,2.13,0,0,0-.06-.54A2.621,2.621,0,0,0,4.875,2.25Z" transform="translate(1.875 1.875)"/>
        <path id="Vector-21" data-name="Vector" class="cls-6" d="M4.875,9.75A4.884,4.884,0,0,1,0,4.875a5.08,5.08,0,0,1,.09-.96A4.878,4.878,0,1,1,5.85,9.66,5.36,5.36,0,0,1,4.875,9.75Zm0-7.5A2.619,2.619,0,0,0,2.31,4.35a2.959,2.959,0,0,0-.06.525A2.638,2.638,0,0,0,4.875,7.5a2.13,2.13,0,0,0,.54-.06,2.623,2.623,0,0,0-.54-5.19Z" transform="translate(24.375 1.875)"/>
        <path id="Vector-22" data-name="Vector" class="cls-6" d="M4.875,9.75A4.88,4.88,0,0,1,3.9.09,5.239,5.239,0,0,1,4.875,0,4.884,4.884,0,0,1,9.75,4.875a5.08,5.08,0,0,1-.09.96A4.894,4.894,0,0,1,4.875,9.75Zm0-7.5a2.13,2.13,0,0,0-.54.06A2.623,2.623,0,1,0,7.44,5.4a2.959,2.959,0,0,0,.06-.525A2.638,2.638,0,0,0,4.875,2.25Z" transform="translate(1.875 24.375)"/>
        <path id="Vector-23" data-name="Vector" class="cls-6" d="M4.875,9.75A4.9,4.9,0,0,1,.09,5.85,5.239,5.239,0,0,1,0,4.875,4.884,4.884,0,0,1,4.875,0a5.08,5.08,0,0,1,.96.09,4.878,4.878,0,0,1-.96,9.66Zm0-7.5A2.638,2.638,0,0,0,2.25,4.875a2.13,2.13,0,0,0,.06.54A2.623,2.623,0,1,0,5.4,2.31,1.941,1.941,0,0,0,4.875,2.25Z" transform="translate(24.375 24.375)"/>
        <path id="Vector-24" data-name="Vector" class="cls-7" d="M0,0H36V36H0Z"/>
      </g>
    </g>
    <g id="vuesax_outline_scan-barcode" data-name="vuesax/outline/scan-barcode" transform="translate(1127 259.295)">
      <g id="scan-barcode" transform="translate(428 252)">
        <path id="Vector-25" data-name="Vector" class="cls-6" d="M1.125,12.75A1.133,1.133,0,0,1,0,11.625V7.875A7.884,7.884,0,0,1,7.875,0h3.75A1.133,1.133,0,0,1,12.75,1.125,1.133,1.133,0,0,1,11.625,2.25H7.875A5.627,5.627,0,0,0,2.25,7.875v3.75A1.133,1.133,0,0,1,1.125,12.75Z" transform="translate(1.875 1.875)"/>
        <path id="Vector-26" data-name="Vector" class="cls-6" d="M11.625,12.75A1.133,1.133,0,0,1,10.5,11.625V7.875A5.627,5.627,0,0,0,4.875,2.25H1.125A1.133,1.133,0,0,1,0,1.125,1.133,1.133,0,0,1,1.125,0h3.75A7.884,7.884,0,0,1,12.75,7.875v3.75A1.133,1.133,0,0,1,11.625,12.75Z" transform="translate(21.375 1.875)"/>
        <path id="Vector-27" data-name="Vector" class="cls-6" d="M3.375,11.25H1.125a1.125,1.125,0,1,1,0-2.25h2.25A5.627,5.627,0,0,0,9,3.375V1.125a1.125,1.125,0,1,1,2.25,0v2.25A7.884,7.884,0,0,1,3.375,11.25Z" transform="translate(22.875 22.875)"/>
        <path id="Vector-28" data-name="Vector" class="cls-6" d="M11.625,12.75H7.875A7.884,7.884,0,0,1,0,4.875V1.125A1.133,1.133,0,0,1,1.125,0,1.133,1.133,0,0,1,2.25,1.125v3.75A5.627,5.627,0,0,0,7.875,10.5h3.75a1.125,1.125,0,0,1,0,2.25Z" transform="translate(1.875 21.375)"/>
        <path id="Vector-29" data-name="Vector" class="cls-6" d="M6.375,9.75h-3A3.1,3.1,0,0,1,0,6.375v-3A3.1,3.1,0,0,1,3.375,0h3A3.1,3.1,0,0,1,9.75,3.375v3A3.1,3.1,0,0,1,6.375,9.75Zm-3-7.5c-.885,0-1.125.24-1.125,1.125v3c0,.885.24,1.125,1.125,1.125h3C7.26,7.5,7.5,7.26,7.5,6.375v-3c0-.885-.24-1.125-1.125-1.125Z" transform="translate(7.125 7.125)"/>
        <path id="Vector-30" data-name="Vector" class="cls-6" d="M6.375,9.75h-3A3.1,3.1,0,0,1,0,6.375v-3A3.1,3.1,0,0,1,3.375,0h3A3.1,3.1,0,0,1,9.75,3.375v3A3.1,3.1,0,0,1,6.375,9.75Zm-3-7.5c-.885,0-1.125.24-1.125,1.125v3c0,.885.24,1.125,1.125,1.125h3C7.26,7.5,7.5,7.26,7.5,6.375v-3c0-.885-.24-1.125-1.125-1.125Z" transform="translate(19.125 7.125)"/>
        <path id="Vector-31" data-name="Vector" class="cls-6" d="M6.375,9.75h-3A3.1,3.1,0,0,1,0,6.375v-3A3.1,3.1,0,0,1,3.375,0h3A3.1,3.1,0,0,1,9.75,3.375v3A3.1,3.1,0,0,1,6.375,9.75Zm-3-7.5c-.885,0-1.125.24-1.125,1.125v3c0,.885.24,1.125,1.125,1.125h3C7.26,7.5,7.5,7.26,7.5,6.375v-3c0-.885-.24-1.125-1.125-1.125Z" transform="translate(7.125 19.125)"/>
        <path id="Vector-32" data-name="Vector" class="cls-6" d="M6.375,9.75h-3A3.1,3.1,0,0,1,0,6.375v-3A3.1,3.1,0,0,1,3.375,0h3A3.1,3.1,0,0,1,9.75,3.375v3A3.1,3.1,0,0,1,6.375,9.75Zm-3-7.5c-.885,0-1.125.24-1.125,1.125v3c0,.885.24,1.125,1.125,1.125h3C7.26,7.5,7.5,7.26,7.5,6.375v-3c0-.885-.24-1.125-1.125-1.125Z" transform="translate(19.125 19.125)"/>
        <path id="Vector-33" data-name="Vector" class="cls-7" d="M0,0H36V36H0Z"/>
      </g>
    </g>
    <g id="vuesax_outline_wallet-money" data-name="vuesax/outline/wallet-money" transform="translate(1293 215.295)">
      <g id="wallet-money" transform="translate(108 380)">
        <path id="Vector-34" data-name="Vector" class="cls-6" d="M6.495,9.975C2.925,9.975,0,7.38,0,4.185V1.125A1.133,1.133,0,0,1,1.125,0,1.133,1.133,0,0,1,2.25,1.125C2.25,3,4.065,4.41,6.495,4.41S10.74,3,10.74,1.125a1.125,1.125,0,0,1,2.25,0v3.06C12.99,7.38,10.08,9.975,6.495,9.975ZM2.64,5.655a4.323,4.323,0,0,0,3.855,2.07,4.353,4.353,0,0,0,3.855-2.07,7.413,7.413,0,0,1-3.855,1.02A7.413,7.413,0,0,1,2.64,5.655Z" transform="translate(4.26 24.15)"/>
        <path id="Vector-35" data-name="Vector" class="cls-6" d="M6.495,11.274a6.686,6.686,0,0,1-5.76-2.91A5.022,5.022,0,0,1,0,5.739,5.443,5.443,0,0,1,1.95,1.6a7.241,7.241,0,0,1,9.06-.015,5.512,5.512,0,0,1,1.965,4.155,5.022,5.022,0,0,1-.735,2.625A6.641,6.641,0,0,1,6.495,11.274Zm0-9.075a4.63,4.63,0,0,0-3.06,1.095A3.225,3.225,0,0,0,2.25,5.739a2.766,2.766,0,0,0,.4,1.455,4.409,4.409,0,0,0,3.84,1.845,4.389,4.389,0,0,0,3.825-1.83,2.728,2.728,0,0,0,.405-1.455A3.278,3.278,0,0,0,9.54,3.294,4.562,4.562,0,0,0,6.495,2.2Z" transform="translate(4.26 15.426)"/>
        <path id="Vector-36" data-name="Vector" class="cls-6" d="M6.495,15.45C2.79,15.45,0,13.065,0,9.915V5.79C0,2.595,2.91,0,6.495,0a6.934,6.934,0,0,1,4.53,1.635A5.512,5.512,0,0,1,12.99,5.79V9.915C12.99,13.065,10.2,15.45,6.495,15.45Zm0-13.2c-2.34,0-4.245,1.59-4.245,3.54V9.915c0,1.875,1.815,3.285,4.245,3.285s4.245-1.41,4.245-3.285V5.79A3.278,3.278,0,0,0,9.555,3.33,4.7,4.7,0,0,0,6.495,2.25Z" transform="translate(4.26 15.375)"/>
        <path id="Vector-37" data-name="Vector" class="cls-6" d="M4.384,8.4A4.318,4.318,0,0,1,.019,4.56a4.117,4.117,0,0,1,1.23-3.345A4.065,4.065,0,0,1,4.189,0H7.324A2.663,2.663,0,0,1,9.949,2.655v3.09A2.654,2.654,0,0,1,7.369,8.4ZM7.279,2.25H4.2a1.844,1.844,0,0,0-1.35.555,1.889,1.889,0,0,0-.585,1.56A2.079,2.079,0,0,0,4.384,6.15h2.94a.4.4,0,0,0,.375-.4V2.655A.416.416,0,0,0,7.279,2.25Z" transform="translate(24.176 13.8)"/>
        <path id="Vector-38" data-name="Vector" class="cls-6" d="M22.14,27.75H18.39a1.125,1.125,0,0,1,0-2.25h3.75a5.977,5.977,0,0,0,6.375-6.375v-1.05H26.7a4.318,4.318,0,0,1-4.365-3.84,4.117,4.117,0,0,1,1.23-3.345A4.065,4.065,0,0,1,26.5,9.675h2V8.625c0-3.51-2.055-5.925-5.385-6.315a5.739,5.739,0,0,0-.99-.06H8.625a8.046,8.046,0,0,0-1.05.075c-3.3.42-5.325,2.82-5.325,6.3v3A1.133,1.133,0,0,1,1.125,12.75,1.133,1.133,0,0,1,0,11.625v-3C0,4.005,2.85.66,7.275.105A9.309,9.309,0,0,1,8.625,0h13.5a8.537,8.537,0,0,1,1.3.09c4.425.51,7.32,3.87,7.32,8.535V10.8a1.133,1.133,0,0,1-1.125,1.125H26.5a1.844,1.844,0,0,0-1.35.555,1.889,1.889,0,0,0-.585,1.56,2.079,2.079,0,0,0,2.115,1.785H29.64a1.133,1.133,0,0,1,1.125,1.125v2.175C30.765,24.285,27.3,27.75,22.14,27.75Z" transform="translate(1.86 4.125)"/>
        <path id="Vector-39" data-name="Vector" class="cls-7" d="M0,0H36V36H0Z" transform="translate(36 36) rotate(180)"/>
      </g>
    </g>
  </g>
</svg>
