<svg xmlns="http://www.w3.org/2000/svg" width="43" height="43" viewBox="0 0 43 43">
  <g id="ReferralsIcon" transform="translate(-1689.5 -470.5)">
    <circle id="Polygon_MATIC_" data-name="Polygon (MATIC)" cx="21" cy="21" r="21" transform="translate(1690 471)" fill="none" stroke="#d6d6d6" stroke-width="1"/>
    <path id="Vector" d="M4,0H0" transform="translate(1713.5 499.5)" fill="none" stroke="#292d32" stroke-linecap="round" stroke-linejoin="round" stroke-width="1.5"/>
    <path id="Vector-2" data-name="Vector" d="M0,4V0" transform="translate(1715.5 497.5)" fill="none" stroke="#292d32" stroke-linecap="round" stroke-linejoin="round" stroke-width="1.5"/>
    <path id="Vector-3" data-name="Vector" d="M4.6,8.87a1.818,1.818,0,0,0-.33,0,4.435,4.435,0,1,1,.33,0Z" transform="translate(1706.56 482)" fill="none" stroke="#292d32" stroke-linecap="round" stroke-linejoin="round" stroke-width="1.5" opacity="0.4"/>
    <path id="Vector-4" data-name="Vector" d="M6.825,8.63a9.15,9.15,0,0,1-5.01-1.38c-2.42-1.62-2.42-4.26,0-5.87a9.766,9.766,0,0,1,10.01,0" transform="translate(1704.165 493.18)" fill="none" stroke="#292d32" stroke-linecap="round" stroke-linejoin="round" stroke-width="1.5"/>
    <path id="Vector-5" data-name="Vector" d="M0,0H24V24H0Z" transform="translate(1723 504) rotate(180)" fill="none" opacity="0"/>
  </g>
</svg>
