<svg xmlns="http://www.w3.org/2000/svg" width="22.163" height="22.163" viewBox="0 0 22.163 22.163">
  <g id="SuccessIcon" transform="translate(-2819.918 -74.419)">
    <g id="Path_11691" data-name="Path 11691" transform="translate(2819.918 74.419)" fill="rgba(53,196,134,0.2)">
      <path d="M 11.08135223388672 21.6627025604248 C 5.246772289276123 21.6627025604248 0.5000022053718567 16.91593170166016 0.5000022053718567 11.08135223388672 C 0.5000022053718567 5.246772289276123 5.246772289276123 0.5000022053718567 11.08135223388672 0.5000022053718567 C 16.91593170166016 0.5000022053718567 21.6627025604248 5.246772289276123 21.6627025604248 11.08135223388672 C 21.6627025604248 16.91593170166016 16.91593170166016 21.6627025604248 11.08135223388672 21.6627025604248 Z" stroke="none"/>
      <path d="M 11.08135223388672 1.000001907348633 C 5.522472381591797 1.000001907348633 1.000001907348633 5.522472381591797 1.000001907348633 11.08135223388672 C 1.000001907348633 16.64023208618164 5.522472381591797 21.1627025604248 11.08135223388672 21.1627025604248 C 16.64023208618164 21.1627025604248 21.1627025604248 16.64023208618164 21.1627025604248 11.08135223388672 C 21.1627025604248 5.522472381591797 16.64023208618164 1.000001907348633 11.08135223388672 1.000001907348633 M 11.08135223388672 1.9073486328125e-06 C 17.20141220092773 1.9073486328125e-06 22.1627025604248 4.961292266845703 22.1627025604248 11.08135223388672 C 22.1627025604248 17.20141220092773 17.20141220092773 22.1627025604248 11.08135223388672 22.1627025604248 C 4.961292266845703 22.1627025604248 1.9073486328125e-06 17.20141220092773 1.9073486328125e-06 11.08135223388672 C 1.9073486328125e-06 4.961292266845703 4.961292266845703 1.9073486328125e-06 11.08135223388672 1.9073486328125e-06 Z" stroke="none" fill="#35c486"/>
    </g>
    <path id="Path_11690" data-name="Path 11690" d="M177.88,147.977l-.681-.695-6.5,6.626-3.138-3.2-.682.679,3.82,3.895Z" transform="translate(2658.619 -65.782)" fill="#35c486" stroke="#35c486" stroke-width="0.5"/>
  </g>
</svg>
